<svg width="151" height="185" viewBox="0 0 151 185" fill="none" xmlns="http://www.w3.org/2000/svg">
<path d="M101.333 9H51.3333C46.731 9 43 12.731 43 17.3333V34C43 38.6024 46.731 42.3333 51.3333 42.3333H101.333C105.936 42.3333 109.667 38.6024 109.667 34V17.3333C109.667 12.731 105.936 9 101.333 9Z" stroke="black" stroke-width="16.6667" stroke-linecap="round" stroke-linejoin="round"/>
<path d="M109 26H125.667C130.087 26 134.326 27.7559 137.452 30.8816C140.577 34.0072 142.333 38.2464 142.333 42.6667V159.333C142.333 163.754 140.577 167.993 137.452 171.118C134.326 174.244 130.087 176 125.667 176H25.6667C21.2464 176 17.0072 174.244 13.8816 171.118C10.7559 167.993 9 163.754 9 159.333V42.6667C9 38.2464 10.7559 34.0072 13.8816 30.8816C17.0072 27.7559 21.2464 26 25.6667 26H42.3333" stroke="black" stroke-width="16.6667" stroke-linecap="round" stroke-linejoin="round"/>
</svg>
